# xmcd
#
# Track frame offsets: 
#        150
#        15262
#        33022
#        46300
#        63100
#        71908
#        82789
#        98773
#        111610
#        131412
#        142887
#        159206
#        185584
#        199594
#        213588
#        231909
#        248936
#        264888
#        279462
#        294410
#        305104
#
# Disc length: 4362 seconds
#
# Revision: 0
# Processed by: cddbd v1.5.2PL0 Copyright (c) Steve Scherf et al.
# Submitted via: ExactAudioCopy v0.95a4
#
DISCID=21110815
DTITLE=Various Artist - A Collection Of Songs From Bands On Call
DYEAR=2001
DGENRE=Bluegrass
TTITLE0=Kane's River - The Whole World
TTITLE1=Rebecca Hoggan - Telluride Mandolin
TTITLE2=Credibility Gap - Forty Days
TTITLE3=The Bertye Maddux Band - Sante Fe Railroad Line
TTITLE4=Bluegrass Patriots - Love Life On Hold
TTITLE5=Quickdraw - Mountain Modular
TTITLE6=Howlin' Dog Moon - Hobbies and Dreams
TTITLE7=Open Road - I've Always Been A Rambler
TTITLE8=Fred Knot - Long Road Home
TTITLE9=Ron Spears and Within Tradition - Roller Coaster Love Affair
TTITLE10=Northern Lights - Rust Farm Fire
TTITLE11=Pete Wernick's Live Five - On A Roll
TTITLE12=Pete and Joan Wernick - My Love Is A Rider
TTITLE13=Midland Express - I Wouldn't Hold My Breath
TTITLE14=The Stanleytones - I Don't Drink Whiskey
TTITLE15=Armando Zuppa - Corrected Coffee
TTITLE16=Fleeting Moment - Echoes From The Canyon
TTITLE17=High Atmosphere Bluegrass Band - Can't Wait To See
TTITLE18=Roughcut Bluegrass Band - The Greatest Thing
TTITLE19=Strings Attached - Lunch Breakdown
TTITLE20=Dark Horse - Angels Can Do No More
EXTD=
EXTT0=
EXTT1=
EXTT2=
EXTT3=
EXTT4=
EXTT5=
EXTT6=
EXTT7=
EXTT8=
EXTT9=
EXTT10=
EXTT11=
EXTT12=
EXTT13=
EXTT14=
EXTT15=
EXTT16=
EXTT17=
EXTT18=
EXTT19=
EXTT20=
PLAYORDER=
